<svg width="331" height="331" viewBox="0 0 331 331" fill="none" xmlns="http://www.w3.org/2000/svg">
<g filter="url(#filter0_d_4906_4688)">
<circle cx="160.5" cy="160.5" r="140.5" fill="#4B8370"/>
</g>
<rect x="217" y="46" width="47" height="47" fill="white"/>
<path d="M286.278 77.1092C284.312 74.0517 282.347 71.1035 280.381 68.046C279.945 67.3908 279.945 66.954 280.381 66.2989C282.347 63.3506 284.203 60.4023 286.169 57.454C288.462 53.9598 287.261 50.5747 283.33 49.1552C280.054 47.954 276.778 46.6437 273.502 45.4425C272.847 45.2242 272.519 44.7874 272.519 44.023C272.41 40.4195 272.192 36.8161 271.973 33.3218C271.755 29.5 268.807 27.3161 265.094 28.2989C261.6 29.1724 258.106 30.1552 254.72 31.1379C253.956 31.3563 253.519 31.1379 252.973 30.592C250.789 27.7529 248.496 25.023 246.312 22.2931C243.91 19.2356 240.197 19.2356 237.686 22.2931C235.502 25.023 233.209 27.7529 231.134 30.4828C230.588 31.2471 230.042 31.3563 229.169 31.1379C225.784 30.1552 222.399 29.2816 219.996 28.6264C215.301 27.5345 212.462 29.3908 212.243 33.3218C212.025 36.9253 211.807 40.5287 211.697 44.2414C211.697 45.0057 211.37 45.3333 210.715 45.6609C207.33 46.9713 203.945 48.2816 200.56 49.592C197.065 51.0115 195.973 54.3966 198.048 57.5632C200.014 60.6207 201.979 63.569 203.945 66.6264C204.381 67.2816 204.381 67.7184 203.945 68.4828C201.87 71.5402 199.904 74.5977 197.939 77.7644C196.083 80.7127 197.284 84.2069 200.56 85.5173C203.945 86.8276 207.439 88.1379 210.824 89.4483C211.588 89.6667 211.807 90.1035 211.807 90.8678C211.916 94.3621 212.353 97.7471 212.353 101.241C212.353 104.736 215.41 107.902 219.669 106.592C223.054 105.5 226.439 104.736 229.824 103.753C230.479 103.534 230.916 103.644 231.353 104.299C233.646 107.138 235.83 109.868 238.123 112.707C240.634 115.764 244.238 115.764 246.64 112.707C248.933 109.868 251.117 107.138 253.41 104.299C253.847 103.753 254.174 103.534 254.939 103.753C258.433 104.736 261.927 105.609 265.422 106.592C269.025 107.575 272.083 105.391 272.192 101.678C272.41 98.0747 272.628 94.4713 272.738 90.7586C272.738 89.8851 273.174 89.5575 273.83 89.3391C277.105 88.1379 280.491 86.8276 283.766 85.5173C287.261 83.7701 288.353 80.2759 286.278 77.1092ZM260.18 59.2012L238.341 81.0402C237.795 81.5862 237.031 82.023 236.266 82.1322C236.048 82.1322 235.72 82.2414 235.502 82.2414C234.519 82.2414 233.427 81.8046 232.663 81.0402L223.709 72.0862C222.18 70.5575 222.18 68.046 223.709 66.5172C225.238 64.9885 227.749 64.9885 229.278 66.5172L235.393 72.6322L254.393 53.6322C255.922 52.1035 258.433 52.1035 259.962 53.6322C261.709 55.1609 261.709 57.6724 260.18 59.2012Z" fill="#09B285"/>
<path d="M199.387 117.44C199.347 110.634 193.752 105.126 186.905 105.166L175.817 105.228L175.772 97L146.816 97.1546L146.86 105.383L136.34 105.44C129.498 105.48 123.96 111.049 124 117.855L124.613 215.726C124.653 222.532 130.248 228.04 137.091 228L187.655 227.722C194.502 227.682 200.035 222.113 200 215.311L199.387 117.44ZM180.071 164.768C173.517 173.226 166.971 181.688 160.426 190.145L155.488 196.527C155.395 196.647 155.315 196.753 155.226 196.859C154.644 197.543 153.912 197.901 153.161 197.901C152.775 197.901 152.384 197.804 152.007 197.609C150.857 197.009 150.39 195.768 150.821 194.447C151.558 192.195 152.304 189.942 153.05 187.69L157.211 175.142H154.507C151.718 175.142 148.925 175.142 146.136 175.142C145.519 175.142 144.094 175.147 143.383 173.72C142.708 172.364 143.49 171.247 143.823 170.766C149.671 162.378 155.515 153.983 161.358 145.591L165.959 138.984C166.056 138.843 166.167 138.684 166.296 138.525C167.082 137.575 168.29 137.288 169.369 137.791C170.457 138.299 171.012 139.439 170.759 140.627C170.115 143.604 169.458 146.58 168.796 149.553C168.37 151.487 167.939 153.417 167.508 155.352C167.14 157.003 166.776 158.651 166.407 160.303H169.369C172.198 160.303 175.022 160.303 177.85 160.303C178.423 160.303 179.902 160.298 180.604 161.734C181.305 163.165 180.435 164.286 180.062 164.768H180.071Z" fill="white"/>
<defs>
<filter id="filter0_d_4906_4688" x="0" y="0" width="331" height="331" filterUnits="userSpaceOnUse" color-interpolation-filters="sRGB">
<feFlood flood-opacity="0" result="BackgroundImageFix"/>
<feColorMatrix in="SourceAlpha" type="matrix" values="0 0 0 0 0 0 0 0 0 0 0 0 0 0 0 0 0 0 127 0" result="hardAlpha"/>
<feOffset dx="5" dy="5"/>
<feGaussianBlur stdDeviation="12.5"/>
<feComposite in2="hardAlpha" operator="out"/>
<feColorMatrix type="matrix" values="0 0 0 0 0 0 0 0 0 0 0 0 0 0 0 0 0 0 0.15 0"/>
<feBlend mode="normal" in2="BackgroundImageFix" result="effect1_dropShadow_4906_4688"/>
<feBlend mode="normal" in="SourceGraphic" in2="effect1_dropShadow_4906_4688" result="shape"/>
</filter>
</defs>
</svg>
