<svg width="331" height="331" viewBox="0 0 331 331" fill="none" xmlns="http://www.w3.org/2000/svg">
<g filter="url(#filter0_d_4906_4733)">
<circle cx="160.5" cy="160.5" r="140.5" fill="#66D4FF"/>
</g>
<rect x="217" y="46" width="47" height="47" fill="white"/>
<path d="M286.278 77.1092C284.312 74.0517 282.347 71.1035 280.381 68.046C279.945 67.3908 279.945 66.954 280.381 66.2989C282.347 63.3506 284.203 60.4023 286.169 57.454C288.462 53.9598 287.261 50.5747 283.33 49.1552C280.054 47.954 276.778 46.6437 273.502 45.4425C272.847 45.2242 272.519 44.7874 272.519 44.023C272.41 40.4195 272.192 36.8161 271.973 33.3218C271.755 29.5 268.807 27.3161 265.094 28.2989C261.6 29.1724 258.106 30.1552 254.72 31.1379C253.956 31.3563 253.519 31.1379 252.973 30.592C250.789 27.7529 248.496 25.023 246.312 22.2931C243.91 19.2356 240.197 19.2356 237.686 22.2931C235.502 25.023 233.209 27.7529 231.134 30.4828C230.588 31.2471 230.042 31.3563 229.169 31.1379C225.784 30.1552 222.399 29.2816 219.996 28.6264C215.301 27.5345 212.462 29.3908 212.243 33.3218C212.025 36.9253 211.807 40.5287 211.697 44.2414C211.697 45.0057 211.37 45.3333 210.715 45.6609C207.33 46.9713 203.945 48.2816 200.56 49.592C197.065 51.0115 195.973 54.3966 198.048 57.5632C200.014 60.6207 201.979 63.569 203.945 66.6264C204.381 67.2816 204.381 67.7184 203.945 68.4828C201.87 71.5402 199.904 74.5977 197.939 77.7644C196.083 80.7127 197.284 84.2069 200.56 85.5173C203.945 86.8276 207.439 88.1379 210.824 89.4483C211.588 89.6667 211.807 90.1035 211.807 90.8678C211.916 94.3621 212.353 97.7471 212.353 101.241C212.353 104.736 215.41 107.902 219.669 106.592C223.054 105.5 226.439 104.736 229.824 103.753C230.479 103.534 230.916 103.644 231.353 104.299C233.646 107.138 235.83 109.868 238.123 112.707C240.634 115.764 244.238 115.764 246.64 112.707C248.933 109.868 251.117 107.138 253.41 104.299C253.847 103.753 254.174 103.534 254.939 103.753C258.433 104.736 261.927 105.609 265.422 106.592C269.025 107.575 272.083 105.391 272.192 101.678C272.41 98.0747 272.628 94.4713 272.738 90.7586C272.738 89.8851 273.174 89.5575 273.83 89.3391C277.105 88.1379 280.491 86.8276 283.766 85.5173C287.261 83.7701 288.353 80.2759 286.278 77.1092ZM260.18 59.2012L238.341 81.0402C237.795 81.5862 237.031 82.023 236.266 82.1322C236.048 82.1322 235.72 82.2414 235.502 82.2414C234.519 82.2414 233.427 81.8046 232.663 81.0402L223.709 72.0862C222.18 70.5575 222.18 68.046 223.709 66.5172C225.238 64.9885 227.749 64.9885 229.278 66.5172L235.393 72.6322L254.393 53.6322C255.922 52.1035 258.433 52.1035 259.962 53.6322C261.709 55.1609 261.709 57.6724 260.18 59.2012Z" fill="#09B285"/>
<g clip-path="url(#clip0_4906_4733)">
<path d="M198.437 135.773C193.572 129.105 184.915 119.207 173.082 113.191C173.082 113.182 173.072 113.173 173.063 113.155V111.137C173.063 110.893 172.999 110.667 172.889 110.468H173.467C175.377 110.468 176.928 108.939 176.928 107.057V103.411C176.928 101.529 175.377 100 173.467 100H147.542C145.633 100 144.081 101.529 144.081 103.411V107.066C144.081 108.948 145.633 110.477 147.542 110.477H148.111C148.01 110.676 147.946 110.893 147.946 111.119V113.155C147.946 113.155 147.937 113.173 147.928 113.191C136.094 119.207 127.437 129.105 122.572 135.773C119.597 139.844 118 144.729 118 149.742V207.906C118 219.007 127.125 228 138.389 228H182.611C193.875 228 203 219.007 203 207.906V149.733C203 144.729 201.403 139.844 198.428 135.764L198.437 135.773ZM193.342 193.213C193.342 198.75 188.477 203.22 182.758 202.686C177.745 202.215 174.027 197.846 174.027 192.879V159.286C174.027 154.229 177.874 149.805 182.996 149.443C185.925 149.235 188.615 150.339 190.506 152.221C192.259 153.939 193.342 156.328 193.342 158.943V193.213Z" fill="white"/>
</g>
<defs>
<filter id="filter0_d_4906_4733" x="0" y="0" width="331" height="331" filterUnits="userSpaceOnUse" color-interpolation-filters="sRGB">
<feFlood flood-opacity="0" result="BackgroundImageFix"/>
<feColorMatrix in="SourceAlpha" type="matrix" values="0 0 0 0 0 0 0 0 0 0 0 0 0 0 0 0 0 0 127 0" result="hardAlpha"/>
<feOffset dx="5" dy="5"/>
<feGaussianBlur stdDeviation="12.5"/>
<feComposite in2="hardAlpha" operator="out"/>
<feColorMatrix type="matrix" values="0 0 0 0 0 0 0 0 0 0 0 0 0 0 0 0 0 0 0.15 0"/>
<feBlend mode="normal" in2="BackgroundImageFix" result="effect1_dropShadow_4906_4733"/>
<feBlend mode="normal" in="SourceGraphic" in2="effect1_dropShadow_4906_4733" result="shape"/>
</filter>
<clipPath id="clip0_4906_4733">
<rect width="85" height="128" fill="white" transform="translate(118 100)"/>
</clipPath>
</defs>
</svg>
