<svg width="110" height="102" viewBox="0 0 110 102" fill="none" xmlns="http://www.w3.org/2000/svg">
<path d="M4.74039 68.53C5.61039 71 6.66039 73.42 7.91039 75.73C24.4904 106.57 79.6004 109.72 99.2304 80.05C106.96 68.37 110.07 53.79 108.06 39.93C106.78 31.11 103.36 22.5 98.0004 15.44C99.5304 13.82 100.42 12.41 100.79 9.94004C101.22 7.06004 94.3604 8.19004 93.1404 8.66004C92.7904 8.79004 92.4404 8.92005 92.0904 9.04005C91.2104 8.26005 90.3004 7.51002 89.3504 6.80002C85.4404 3.86002 80.9204 1.57005 76.0604 1.01005C71.2004 0.460047 61.7604 0.950034 56.2704 7.81003C49.4704 16.32 48.5604 19.18 40.8604 24.36C32.6504 29.89 22.7404 24.27 14.0404 28.1C12.1104 28.95 10.3504 30.11 8.81039 31.51C4.90039 35.04 2.32038 40.05 1.51038 45.26C0.310384 53.07 2.13039 61.18 4.72039 68.54L4.74039 68.53ZM68.8204 11.51C69.7304 9.41005 71.5704 7.90003 73.9004 7.77003C77.2404 7.59003 79.9504 9.85005 80.1504 13.04C80.1704 13.44 80.1604 13.84 80.1004 14.27C79.5904 18.05 74.0204 20.94 70.8604 18.42C68.6704 16.68 67.6604 14.2 68.8304 11.51H68.8204Z" stroke="#B4B4B5" stroke-miterlimit="10"/>
</svg>
