<?xml version="1.0" encoding="utf-8"?>
<!-- Generator: Adobe Illustrator 24.0.3, SVG Export Plug-In . SVG Version: 6.00 Build 0)  -->
<svg version="1.1" id="圖層_1" width="100" height="100" xmlns="http://www.w3.org/2000/svg" xmlns:xlink="http://www.w3.org/1999/xlink" x="0px" y="0px"
	 viewBox="0 0 116 107.4" style="enable-background:new 0 0 116 107.4;" xml:space="preserve">
<style type="text/css">
	.st0{fill:#FFFFFF;stroke:#B4B4B5;stroke-miterlimit:10;}
</style>
<path class="st0" d="M4.9,72.4c0.9,2.6,2,5.2,3.4,7.6c17.6,32.7,76,36,96.8,4.6c8.2-12.4,11.5-27.9,9.4-42.5
	c-1.3-9.3-5-18.5-10.7-26c1.6-1.7,2.6-3.2,3-5.8c0.5-3-6.8-1.8-8.1-1.4c-0.4,0.1-0.8,0.3-1.1,0.4c-0.9-0.8-1.9-1.6-2.9-2.4
	c-4.1-3.1-8.9-5.5-14.1-6.1S65.4,0.7,59.6,8c-7.2,9-8.2,12.1-16.3,17.5c-8.7,5.9-19.2-0.1-28.4,4c-2.1,0.9-3.9,2.1-5.5,3.6
	c-4.1,3.7-6.9,9.1-7.7,14.6C0.2,56,2.1,64.6,4.9,72.4z M72.8,12c1-2.2,2.9-3.8,5.4-4c3.5-0.2,6.4,2.2,6.6,5.6c0,0.4,0,0.9,0,1.3
	c-0.5,4-6.4,7.1-9.8,4.4C72.7,17.5,71.6,14.8,72.8,12z"/>
</svg>
