<svg width="88" height="126" viewBox="0 0 88 126" fill="none" xmlns="http://www.w3.org/2000/svg">
<path d="M83.61 24.0302L77.28 16.8502C77.71 15.8202 77.95 14.7002 77.95 13.5102V9.3902C77.95 4.6002 74.05 0.700195 69.26 0.700195H17.92C13.13 0.700195 9.23004 4.6002 9.23004 9.3902V13.5102C9.23004 15.0402 9.63004 16.4702 10.32 17.7202L4.79004 24.0002L4.76004 24.0402C1.02004 28.4002 1.02002 31.5902 1.02002 35.2902V107.69C1.02002 111.58 2.53003 115.23 5.28003 117.98L8.08002 120.78C10.83 123.53 14.49 125.04 18.37 125.04H69.99C73.88 125.04 77.53 123.53 80.28 120.78L83.08 117.98C85.83 115.23 87.34 111.57 87.34 107.69V35.2902C87.34 31.5902 87.34 28.4002 83.6 24.0402L83.61 24.0302Z" stroke="#B4B4B5" stroke-miterlimit="10"/>
</svg>
