<svg width="105" height="190" viewBox="0 0 105 190" fill="none" xmlns="http://www.w3.org/2000/svg">
<path d="M103.94 83.01L103.92 72.66C103.92 70.71 103.09 68.47 101.77 66.82C98.78 63.1 95.6499 59.43 92.6099 55.87L92.57 55.82C91.37 54.41 90.1699 53 88.9699 51.59C85.8799 47.93 82.79 44.28 79.65 40.55L77.29 37.75C80.92 34.77 81.26 30.6501 81.17 27.7001C81.08 24.6301 81.1 21.48 81.12 18.44C81.13 16.5 81.14 14.5 81.12 12.52C81.07 5.58003 76.93 1.42004 70.07 1.39004C58.5 1.34004 46.61 1.34004 34.7 1.39004C27.81 1.41004 23.6599 5.56004 23.6099 12.47C23.5899 14.51 23.6099 16.64 23.6099 18.51C23.6299 21.61 23.65 24.81 23.56 27.94C23.43 32.22 24.71 35.45 27.46 37.76L23.0199 43.01C16.1999 51.06 9.74995 58.67 3.20995 66.54C1.73995 68.31 0.819967 70.64 0.819967 72.61L0.799947 83.28C0.709947 123.69 0.699958 122.1 0.779958 167.71C0.799958 180.21 9.64995 188.96 22.2999 189C32.1599 189.03 42.2499 189.04 52.2699 189.04C62.2899 189.04 72.35 189.03 82.39 189C95.08 188.96 103.96 180.12 103.97 167.48C104.03 121.51 104.01 122.2 103.95 83.01H103.94Z" stroke="#B4B4B5" stroke-miterlimit="10"/>
</svg>
