<svg width="35" height="61" viewBox="0 0 35 61" fill="none" xmlns="http://www.w3.org/2000/svg">
<path d="M34.09 10.5599C34.07 7.50991 31.58 5.04992 28.54 5.06992L23.6 5.09991L23.58 1.41992L10.69 1.4899L10.71 5.16992L6.02998 5.19992C2.97998 5.21992 0.519977 7.70992 0.539977 10.7599L0.809981 54.5599C0.829981 57.6099 3.31998 60.0699 6.35998 60.0499L28.87 59.9199C31.92 59.8999 34.38 57.4099 34.36 54.3699L34.09 10.5699V10.5599ZM25.49 31.7399C22.57 35.5199 19.66 39.3099 16.75 43.0999L14.55 45.9599C14.51 46.0099 14.47 46.0599 14.43 46.1099C14.17 46.4199 13.84 46.5799 13.51 46.5799C13.34 46.5799 13.16 46.5399 13 46.4499C12.49 46.1799 12.28 45.6299 12.47 45.0299C12.8 44.0199 13.13 43.0099 13.46 42.0099L15.31 36.3899H14.11C12.87 36.3899 11.63 36.3899 10.38 36.3899C10.11 36.3899 9.46998 36.3899 9.14998 35.7499C8.84998 35.1399 9.19999 34.6399 9.34999 34.4299C11.95 30.6799 14.55 26.9199 17.15 23.1599L19.2 20.1999C19.24 20.1399 19.29 20.0699 19.35 19.9999C19.7 19.5699 20.24 19.4499 20.72 19.6699C21.2 19.8999 21.45 20.4099 21.34 20.9399C21.05 22.2699 20.76 23.5999 20.47 24.9399C20.28 25.8099 20.09 26.6699 19.9 27.5399C19.74 28.2799 19.57 29.0199 19.41 29.7599H20.73C21.99 29.7599 23.25 29.7599 24.51 29.7599C24.77 29.7599 25.42 29.7599 25.74 30.3999C26.05 31.0399 25.66 31.5399 25.5 31.7599L25.49 31.7399Z" stroke="#B4B4B5" stroke-miterlimit="10"/>
</svg>
