<svg width="116" height="108" viewBox="0 0 116 108" fill="none" xmlns="http://www.w3.org/2000/svg">
<path d="M4.88005 72.9999C5.81005 75.6199 6.92005 78.1799 8.24005 80.6299C25.8201 113.33 84.25 116.67 105.06 85.2099C113.25 72.8299 116.55 57.3599 114.43 42.6699C113.08 33.3199 109.45 24.1899 103.76 16.7099C105.38 14.9999 106.33 13.4999 106.72 10.8799C107.18 7.82994 99.9 9.02992 98.61 9.51992C98.24 9.65992 97.86 9.78995 97.5 9.91995C96.57 9.08995 95.6001 8.28994 94.6001 7.53994C90.4601 4.42994 85.66 1.98994 80.51 1.40994C75.36 0.819939 65.34 1.34992 59.53 8.60992C52.32 17.6299 51.35 20.6699 43.2 26.1599C34.5 32.0199 23.98 26.0699 14.76 30.1299C12.71 31.0299 10.85 32.2699 9.21005 33.7399C5.06005 37.4799 2.32005 42.7999 1.47005 48.3199C0.190051 56.5999 2.12005 65.1999 4.88005 72.9999ZM72.82 12.5499C73.79 10.3299 75.74 8.71993 78.2 8.58993C81.74 8.39993 84.6101 10.7899 84.8201 14.1699C84.8501 14.5899 84.8301 15.0199 84.7701 15.4699C84.2301 19.4799 78.33 22.5399 74.97 19.8699C72.65 18.0299 71.58 15.3899 72.82 12.5499Z" stroke="#B4B4B5" stroke-miterlimit="10"/>
</svg>
